# xmcd
#
# Track frame offsets:
# 150
# 14335
# 24220
# 36895
# 46870
# 59485
# 74617
# 112460
# 121987
# 131285
# 141785
#
# Disc length: 2037 seconds
#
#
# Revision: 0
# Processed by: cddbd v1.5.2PL0 Copyright (c) Steve Scherf et al.
# Submitted via: FreeRIP 2.96 
#
DISCID=9c07f30b
DTITLE=Dona Ivone Lara - Sorriso de Criança - Sorriso de Criança
DYEAR=1900
DGENRE=Samba
TTITLE0=Sorriso de Criança
TTITLE1=Cantei Só Pra Distrair
TTITLE2=Adeus á Solidão
TTITLE3=O Meu Amor Tem Preço
TTITLE4=Quisera
TTITLE5=São Paulo, Chapadão de Glória
TTITLE6=Sonho Meu/Liberdade/Acreditar/Tiê/Andeu Para Curimá
TTITLE7=Amar Como Eu Amei
TTITLE8=Confesso
TTITLE9=Por Querer Liberdade
TTITLE10=Muro das Lamentações
EXTD=
EXTT0=
EXTT1=
EXTT2=
EXTT3=
EXTT4=
EXTT5=
EXTT6=
EXTT7=
EXTT8=
EXTT9=
EXTT10=
PLAYORDER=
